<?xml version="1.0" standalone="no"?><svg xmlns="http://www.w3.org/2000/svg" viewBox="0 0 1440 320"><path fill="#ff5500" fill-opacity="1" d="M0,64L30,85.3C60,107,120,149,180,144C240,139,300,85,360,74.7C420,64,480,96,540,117.3C600,139,660,149,720,170.7C780,192,840,224,900,224C960,224,1020,192,1080,181.3C1140,171,1200,181,1260,192C1320,203,1380,213,1410,218.7L1440,224L1440,320L1410,320C1380,320,1320,320,1260,320C1200,320,1140,320,1080,320C1020,320,960,320,900,320C840,320,780,320,720,320C660,320,600,320,540,320C480,320,420,320,360,320C300,320,240,320,180,320C120,320,60,320,30,320L0,320Z"></path></svg>