<?xml version="1.0" standalone="no"?><svg xmlns="http://www.w3.org/2000/svg" viewBox="0 0 1440 320"><path fill="#ff5500" fill-opacity="1" d="M0,160L30,154.7C60,149,120,139,180,160C240,181,300,235,360,234.7C420,235,480,181,540,138.7C600,96,660,64,720,85.3C780,107,840,181,900,186.7C960,192,1020,128,1080,138.7C1140,149,1200,235,1260,266.7C1320,299,1380,277,1410,266.7L1440,256L1440,320L1410,320C1380,320,1320,320,1260,320C1200,320,1140,320,1080,320C1020,320,960,320,900,320C840,320,780,320,720,320C660,320,600,320,540,320C480,320,420,320,360,320C300,320,240,320,180,320C120,320,60,320,30,320L0,320Z"></path></svg>